<svg id="Capa_1" enable-background="new 0 0 512 512" height="512" viewBox="0 0 512 512" width="512" xmlns="http://www.w3.org/2000/svg"><g><path d="m256 78.226c-98.025 0-177.774 79.749-177.774 177.774s79.749 177.774 177.774 177.774 177.774-79.749 177.774-177.774-79.749-177.774-177.774-177.774zm-103.043 283.584c20.634-37.158 60.052-60.68 103.043-60.68s82.409 23.522 103.043 60.681c-26.64 25.95-63.004 41.964-103.043 41.964s-76.403-16.015-103.043-41.965zm103.043-90.706c-24.951 0-45.25-20.299-45.25-45.25s20.299-45.25 45.25-45.25 45.25 20.299 45.25 45.25-20.299 45.25-45.25 45.25zm123.275 66.289c-17.366-26.204-42.565-46.044-71.608-56.905 14.506-13.726 23.584-33.133 23.584-54.633 0-41.493-33.757-75.25-75.25-75.25s-75.25 33.757-75.25 75.25c0 21.5 9.077 40.907 23.584 54.633-29.043 10.861-54.242 30.701-71.608 56.905-15.473-23.357-24.5-51.339-24.5-81.393 0-81.483 66.291-147.774 147.774-147.774s147.773 66.291 147.773 147.774c0 30.054-9.026 58.036-24.499 81.393z"/><path d="m512 256c0-68.38-26.629-132.667-74.98-181.02-48.353-48.351-112.64-74.98-181.02-74.98-53.592 0-104.663 16.368-147.525 46.72-6.715-3.97-14.537-6.258-22.887-6.258-24.882 0-45.125 20.243-45.125 45.125 0 8.35 2.288 16.172 6.258 22.888-30.352 42.863-46.721 93.933-46.721 147.525 0 68.38 26.629 132.667 74.98 181.02 48.353 48.351 112.64 74.98 181.02 74.98 53.589 0 104.65-16.378 147.511-46.729 6.719 3.975 14.546 6.266 22.902 6.266 24.882 0 45.125-20.243 45.125-45.125 0-8.35-2.288-16.172-6.258-22.887 30.352-42.862 46.72-93.933 46.72-147.525zm-426.413-185.538c8.34 0 15.125 6.785 15.125 15.125s-6.785 15.125-15.125 15.125-15.125-6.785-15.125-15.125 6.786-15.125 15.125-15.125zm340.826 371.076c-8.34 0-15.125-6.785-15.125-15.125s6.785-15.125 15.125-15.125 15.125 6.785 15.125 15.125-6.786 15.125-15.125 15.125zm15.801-57.388c-4.921-1.846-10.244-2.862-15.801-2.862-24.882 0-45.125 20.243-45.125 45.125 0 5.553 1.014 10.871 2.857 15.789-37.406 25.86-81.699 39.798-128.145 39.798-60.367 0-117.12-23.508-159.806-66.194s-66.194-99.439-66.194-159.806c0-46.445 13.932-90.742 39.793-128.147 4.919 1.844 10.24 2.859 15.794 2.859 24.882 0 45.125-20.243 45.125-45.125 0-5.553-1.014-10.872-2.857-15.789 37.406-25.861 81.699-39.798 128.145-39.798 60.367 0 117.12 23.508 159.806 66.194s66.194 99.439 66.194 159.806c0 46.445-13.927 90.744-39.786 128.15z"/></g></svg>