<svg id="Capa_1" enable-background="new 0 0 512 512" height="512" viewBox="0 0 512 512" width="512" xmlns="http://www.w3.org/2000/svg"><g><path d="m512 256c0-68.38-26.629-132.667-74.98-181.02-48.353-48.351-112.64-74.98-181.02-74.98-53.592 0-104.663 16.368-147.525 46.72-6.715-3.97-14.537-6.258-22.887-6.258-24.882 0-45.125 20.243-45.125 45.125 0 8.35 2.288 16.172 6.258 22.888-30.352 42.863-46.721 93.933-46.721 147.525 0 68.38 26.629 132.667 74.98 181.02 48.353 48.351 112.64 74.98 181.02 74.98 53.589 0 104.65-16.378 147.511-46.729 6.719 3.975 14.546 6.266 22.902 6.266 24.882 0 45.125-20.243 45.125-45.125 0-8.35-2.288-16.172-6.258-22.887 30.352-42.862 46.72-93.933 46.72-147.525zm-426.413-185.538c8.34 0 15.125 6.785 15.125 15.125s-6.785 15.125-15.125 15.125-15.125-6.785-15.125-15.125 6.786-15.125 15.125-15.125zm340.826 371.076c-8.34 0-15.125-6.785-15.125-15.125s6.785-15.125 15.125-15.125 15.125 6.785 15.125 15.125-6.786 15.125-15.125 15.125zm15.801-57.388c-4.921-1.846-10.244-2.862-15.801-2.862-24.882 0-45.125 20.243-45.125 45.125 0 5.553 1.014 10.871 2.857 15.789-37.406 25.86-81.699 39.798-128.145 39.798-60.367 0-117.12-23.508-159.806-66.194s-66.194-99.439-66.194-159.806c0-46.445 13.932-90.742 39.793-128.147 4.919 1.844 10.24 2.859 15.794 2.859 24.882 0 45.125-20.243 45.125-45.125 0-5.553-1.014-10.872-2.857-15.789 37.406-25.861 81.699-39.798 128.145-39.798 60.367 0 117.12 23.508 159.806 66.194s66.194 99.439 66.194 159.806c0 46.445-13.927 90.744-39.786 128.15z"/><path d="m416.224 140.901c0-24.882-20.243-45.125-45.125-45.125-9.053 0-17.486 2.69-24.559 7.298-26.536-15.773-57.495-24.848-90.54-24.848-98.025 0-177.774 79.749-177.774 177.774 0 33.046 9.076 64.006 24.848 90.541-4.608 7.073-7.297 15.505-7.297 24.558 0 24.882 20.243 45.125 45.125 45.125 9.051 0 17.482-2.689 24.554-7.295 26.536 15.772 57.499 24.845 90.545 24.845 98.025 0 177.774-79.749 177.774-177.774 0-33.046-9.076-64.005-24.849-90.54 4.608-7.073 7.298-15.506 7.298-24.559zm-45.125-15.125c8.34 0 15.125 6.785 15.125 15.125s-6.785 15.125-15.125 15.125-15.125-6.785-15.125-15.125 6.785-15.125 15.125-15.125zm-230.198 260.448c-8.34 0-15.125-6.785-15.125-15.125s6.785-15.125 15.125-15.125 15.125 6.785 15.125 15.125-6.785 15.125-15.125 15.125zm115.099 17.55c-26.187 0-50.793-6.862-72.145-18.861 1.405-4.357 2.171-8.997 2.171-13.815 0-24.882-20.243-45.125-45.125-45.125-4.821 0-9.465.768-13.824 2.175-11.998-21.351-18.852-45.963-18.852-72.149 0-81.483 66.291-147.774 147.774-147.774 26.186 0 50.793 6.863 72.145 18.86-1.405 4.357-2.172 8.997-2.172 13.815 0 24.882 20.243 45.125 45.125 45.125 4.818 0 9.458-.767 13.814-2.171 11.998 21.352 18.861 45.959 18.861 72.146.002 81.483-66.289 147.774-147.772 147.774z"/><path d="m286.754 202.7-30.754-52.719-30.754 52.719-61.059.273 30.289 53.027-30.288 53.027 61.059.273 30.753 52.719 30.754-52.719 61.059-.273-30.289-53.027 30.288-53.027zm9.506 76.557-26.781.12-13.479 23.104-13.479-23.104-26.781-.12 13.284-23.257-13.284-23.257 26.781-.12 13.479-23.104 13.479 23.104 26.781.12-13.284 23.257z"/></g></svg>