<svg xmlns="http://www.w3.org/2000/svg" baseProfile="basic" viewBox="0 0 48 48"><linearGradient id="z1gp387LYYaXUpSkRzhrQa" x1="37.148" x2="8.984" y1="-11.609" y2="64.669" gradientUnits="userSpaceOnUse"><stop offset="0" stop-color="#262626" stop-opacity="0"/><stop offset="1" stop-color="#262626" stop-opacity=".8"/></linearGradient><circle cx="24" cy="24" r="20" fill="url(#z1gp387LYYaXUpSkRzhrQa)"/><linearGradient id="z1gp387LYYaXUpSkRzhrQb" x1="30.139" x2="-2.627" y1="-11.505" y2="77.237" gradientUnits="userSpaceOnUse"><stop offset="0" stop-color="#262626" stop-opacity="0"/><stop offset="1" stop-color="#262626" stop-opacity=".8"/></linearGradient><path fill="url(#z1gp387LYYaXUpSkRzhrQb)" d="M4,24c0,11.046,8.954,20,20,20V4C12.954,4,4,12.954,4,24z"/><linearGradient id="z1gp387LYYaXUpSkRzhrQc" x1="16.287" x2="9.246" y1="16.098" y2="35.167" gradientUnits="userSpaceOnUse"><stop offset="0" stop-color="#262626" stop-opacity="0"/><stop offset="1" stop-color="#262626" stop-opacity=".8"/></linearGradient><circle cx="13" cy="25" r="5" fill="url(#z1gp387LYYaXUpSkRzhrQc)"/><linearGradient id="z1gp387LYYaXUpSkRzhrQd" x1="32.801" x2="27.872" y1="6.269" y2="19.617" gradientUnits="userSpaceOnUse"><stop offset="0" stop-color="#262626" stop-opacity="0"/><stop offset="1" stop-color="#262626" stop-opacity=".8"/></linearGradient><circle cx="30.5" cy="12.5" r="3.5" fill="url(#z1gp387LYYaXUpSkRzhrQd)"/><linearGradient id="z1gp387LYYaXUpSkRzhrQe" x1="38.315" x2="35.498" y1="17.439" y2="25.067" gradientUnits="userSpaceOnUse"><stop offset="0" stop-color="#262626" stop-opacity="0"/><stop offset="1" stop-color="#262626" stop-opacity=".8"/></linearGradient><circle cx="37" cy="21" r="2" fill="url(#z1gp387LYYaXUpSkRzhrQe)"/><linearGradient id="z1gp387LYYaXUpSkRzhrQf" x1="31.315" x2="28.498" y1="33.439" y2="41.067" gradientUnits="userSpaceOnUse"><stop offset="0" stop-color="#262626" stop-opacity="0"/><stop offset="1" stop-color="#262626" stop-opacity=".8"/></linearGradient><circle cx="30" cy="37" r="2" fill="url(#z1gp387LYYaXUpSkRzhrQf)"/><linearGradient id="z1gp387LYYaXUpSkRzhrQg" x1="16.315" x2="13.498" y1="10.439" y2="18.067" gradientUnits="userSpaceOnUse"><stop offset="0" stop-color="#262626" stop-opacity="0"/><stop offset="1" stop-color="#262626" stop-opacity=".8"/></linearGradient><circle cx="15" cy="14" r="2" fill="url(#z1gp387LYYaXUpSkRzhrQg)"/></svg>