<svg xmlns="http://www.w3.org/2000/svg" baseProfile="basic" viewBox="0 0 48 48"><linearGradient id="6auIS_h2urGx8A4U36J-Fa" x1="-13.131" x2="66.106" y1="31.25" y2="17.278" gradientUnits="userSpaceOnUse"><stop offset="0" stop-color="#262626" stop-opacity="0"/><stop offset="1" stop-color="#262626" stop-opacity=".8"/></linearGradient><path fill="url(#6auIS_h2urGx8A4U36J-Fa)" d="M28,46C15.098,46,4.754,34.836,6.122,21.66C7.178,11.486,15.346,3.261,25.513,2.138	c5.172-0.571,10.215,0.647,14.49,3.447c2,1.392,1.996,2.411,1.996,3.623l-1.261,0.41c-5.386,1.75-9.592,6.235-10.525,11.821	c-1.258,7.532,3.149,14.548,10.15,16.823l1.64,0.533c0,1.194,0,2.213-2.008,3.627C36.41,44.766,32.287,46,28,46z M28,6	C17.456,6,9,15.114,10.096,25.878c0.858,8.425,7.709,15.227,16.139,16.037c3.196,0.307,6.327-0.223,9.166-1.517	C29.652,37.046,26,30.867,26,24s3.652-13.046,9.401-16.398C33.087,6.547,30.579,6,28,6z"/></svg>