<svg xmlns="http://www.w3.org/2000/svg" baseProfile="basic" viewBox="0 0 48 48"><linearGradient id="210zWxJRaIcAg7wpogHMaa" x1="37.148" x2="8.984" y1="-11.609" y2="64.669" gradientUnits="userSpaceOnUse"><stop offset="0" stop-color="#262626" stop-opacity="0"/><stop offset="1" stop-color="#262626" stop-opacity=".8"/></linearGradient><circle cx="24" cy="24" r="20" fill="url(#210zWxJRaIcAg7wpogHMaa)"/><linearGradient id="210zWxJRaIcAg7wpogHMab" x1="14.63" x2="8.997" y1="19.878" y2="35.134" gradientUnits="userSpaceOnUse"><stop offset="0" stop-color="#262626" stop-opacity="0"/><stop offset="1" stop-color="#262626" stop-opacity=".8"/></linearGradient><circle cx="12" cy="27" r="4" fill="url(#210zWxJRaIcAg7wpogHMab)"/><linearGradient id="210zWxJRaIcAg7wpogHMac" x1="28.972" x2="24.748" y1="4.659" y2="16.1" gradientUnits="userSpaceOnUse"><stop offset="0" stop-color="#262626" stop-opacity="0"/><stop offset="1" stop-color="#262626" stop-opacity=".8"/></linearGradient><circle cx="27" cy="10" r="3" fill="url(#210zWxJRaIcAg7wpogHMac)"/><linearGradient id="210zWxJRaIcAg7wpogHMad" x1="20.315" x2="17.498" y1="6.439" y2="14.067" gradientUnits="userSpaceOnUse"><stop offset="0" stop-color="#262626" stop-opacity="0"/><stop offset="1" stop-color="#262626" stop-opacity=".8"/></linearGradient><circle cx="19" cy="10" r="2" fill="url(#210zWxJRaIcAg7wpogHMad)"/><linearGradient id="210zWxJRaIcAg7wpogHMae" x1="39.992" x2="6.356" y1="-9.438" y2="81.662" gradientUnits="userSpaceOnUse"><stop offset="0" stop-color="#262626" stop-opacity="0"/><stop offset="1" stop-color="#262626" stop-opacity=".8"/></linearGradient><path fill="url(#210zWxJRaIcAg7wpogHMae)" d="M33.566,6.434C35.117,9.276,36,12.534,36,16c0,11.046-8.954,20-20,20	c-3.466,0-6.724-0.883-9.566-2.434C9.826,39.782,16.42,44,24,44c11.046,0,20-8.954,20-20C44,16.42,39.782,9.826,33.566,6.434z"/></svg>