<svg xmlns="http://www.w3.org/2000/svg" baseProfile="basic" viewBox="0 0 48 48"><linearGradient id="KVyd0SsX994dsyBKzHbm-a" x1="37.148" x2="8.984" y1="-11.609" y2="64.669" gradientUnits="userSpaceOnUse"><stop offset="0" stop-color="#262626" stop-opacity="0"/><stop offset="1" stop-color="#262626" stop-opacity=".8"/></linearGradient><circle cx="24" cy="24" r="20" fill="url(#KVyd0SsX994dsyBKzHbm-a)"/><linearGradient id="KVyd0SsX994dsyBKzHbm-b" x1="40.666" x2="7.629" y1="-9.092" y2="80.385" gradientUnits="userSpaceOnUse"><stop offset="0" stop-color="#262626" stop-opacity="0"/><stop offset="1" stop-color="#262626" stop-opacity=".8"/></linearGradient><path fill="url(#KVyd0SsX994dsyBKzHbm-b)" d="M24,4c-5.52,0-10,8.95-10,20s4.48,20,10,20c11.05,0,20-8.95,20-20S35.05,4,24,4z"/><linearGradient id="KVyd0SsX994dsyBKzHbm-c" x1="36.458" x2="30.121" y1="9.488" y2="26.651" gradientUnits="userSpaceOnUse"><stop offset="0" stop-color="#262626" stop-opacity="0"/><stop offset="1" stop-color="#262626" stop-opacity=".8"/></linearGradient><circle cx="33.5" cy="17.5" r="4.5" fill="url(#KVyd0SsX994dsyBKzHbm-c)"/><linearGradient id="KVyd0SsX994dsyBKzHbm-d" x1="26.143" x2="22.623" y1="7.049" y2="16.584" gradientUnits="userSpaceOnUse"><stop offset="0" stop-color="#262626" stop-opacity="0"/><stop offset="1" stop-color="#262626" stop-opacity=".8"/></linearGradient><circle cx="24.5" cy="11.5" r="2.5" fill="url(#KVyd0SsX994dsyBKzHbm-d)"/><linearGradient id="KVyd0SsX994dsyBKzHbm-e" x1="10.315" x2="7.498" y1="17.439" y2="25.067" gradientUnits="userSpaceOnUse"><stop offset="0" stop-color="#262626" stop-opacity="0"/><stop offset="1" stop-color="#262626" stop-opacity=".8"/></linearGradient><circle cx="9" cy="21" r="2" fill="url(#KVyd0SsX994dsyBKzHbm-e)"/><linearGradient id="KVyd0SsX994dsyBKzHbm-f" x1="24.315" x2="21.498" y1="33.439" y2="41.067" gradientUnits="userSpaceOnUse"><stop offset="0" stop-color="#262626" stop-opacity="0"/><stop offset="1" stop-color="#262626" stop-opacity=".8"/></linearGradient><circle cx="23" cy="37" r="2" fill="url(#KVyd0SsX994dsyBKzHbm-f)"/></svg>