<svg xmlns="http://www.w3.org/2000/svg" baseProfile="basic" viewBox="0 0 48 48"><linearGradient id="lveIpP-C78AwH6c-RPS2La" x1="37.148" x2="8.984" y1="-11.609" y2="64.669" gradientUnits="userSpaceOnUse"><stop offset="0" stop-color="#262626" stop-opacity="0"/><stop offset="1" stop-color="#262626" stop-opacity=".8"/></linearGradient><circle cx="24" cy="24" r="20" fill="url(#lveIpP-C78AwH6c-RPS2La)"/><linearGradient id="lveIpP-C78AwH6c-RPS2Lb" x1="42.838" x2="10.072" y1="-8.142" y2="80.6" gradientUnits="userSpaceOnUse"><stop offset="0" stop-color="#262626" stop-opacity="0"/><stop offset="1" stop-color="#262626" stop-opacity=".8"/></linearGradient><path fill="url(#lveIpP-C78AwH6c-RPS2Lb)" d="M24,4c5.523,0,10,8.954,10,20s-4.477,20-10,20c11.046,0,20-8.954,20-20S35.046,4,24,4z"/><linearGradient id="lveIpP-C78AwH6c-RPS2Lc" x1="17.458" x2="11.121" y1="9.488" y2="26.651" gradientUnits="userSpaceOnUse"><stop offset="0" stop-color="#262626" stop-opacity="0"/><stop offset="1" stop-color="#262626" stop-opacity=".8"/></linearGradient><circle cx="14.5" cy="17.5" r="4.5" fill="url(#lveIpP-C78AwH6c-RPS2Lc)"/><linearGradient id="lveIpP-C78AwH6c-RPS2Ld" x1="25.143" x2="21.623" y1="7.049" y2="16.584" gradientUnits="userSpaceOnUse"><stop offset="0" stop-color="#262626" stop-opacity="0"/><stop offset="1" stop-color="#262626" stop-opacity=".8"/></linearGradient><circle cx="23.5" cy="11.5" r="2.5" fill="url(#lveIpP-C78AwH6c-RPS2Ld)"/><linearGradient id="lveIpP-C78AwH6c-RPS2Le" x1="40.315" x2="37.498" y1="17.439" y2="25.067" gradientUnits="userSpaceOnUse"><stop offset="0" stop-color="#262626" stop-opacity="0"/><stop offset="1" stop-color="#262626" stop-opacity=".8"/></linearGradient><circle cx="39" cy="21" r="2" fill="url(#lveIpP-C78AwH6c-RPS2Le)"/><linearGradient id="lveIpP-C78AwH6c-RPS2Lf" x1="26.315" x2="23.498" y1="33.439" y2="41.067" gradientUnits="userSpaceOnUse"><stop offset="0" stop-color="#262626" stop-opacity="0"/><stop offset="1" stop-color="#262626" stop-opacity=".8"/></linearGradient><circle cx="25" cy="37" r="2" fill="url(#lveIpP-C78AwH6c-RPS2Lf)"/></svg>