<svg xmlns="http://www.w3.org/2000/svg" baseProfile="basic" viewBox="0 0 48 48"><linearGradient id="SrSrwT94pjJKgLTShfysoa" x1="37.148" x2="8.984" y1="-11.609" y2="64.669" gradientUnits="userSpaceOnUse"><stop offset="0" stop-color="#262626" stop-opacity="0"/><stop offset="1" stop-color="#262626" stop-opacity=".8"/></linearGradient><circle cx="24" cy="24" r="20" fill="url(#SrSrwT94pjJKgLTShfysoa)"/><linearGradient id="SrSrwT94pjJKgLTShfysob" x1="32.518" x2="-.519" y1="-11.116" y2="78.362" gradientUnits="userSpaceOnUse"><stop offset="0" stop-color="#262626" stop-opacity="0"/><stop offset="1" stop-color="#262626" stop-opacity=".8"/></linearGradient><path fill="url(#SrSrwT94pjJKgLTShfysob)" d="M34,24c0,11.05-4.48,20-10,20C12.95,44,4,35.05,4,24S12.95,4,24,4C29.52,4,34,12.95,34,24z"/><linearGradient id="SrSrwT94pjJKgLTShfysoc" x1="17.458" x2="11.121" y1="9.488" y2="26.651" gradientUnits="userSpaceOnUse"><stop offset="0" stop-color="#262626" stop-opacity="0"/><stop offset="1" stop-color="#262626" stop-opacity=".8"/></linearGradient><circle cx="14.5" cy="17.5" r="4.5" fill="url(#SrSrwT94pjJKgLTShfysoc)"/><linearGradient id="SrSrwT94pjJKgLTShfysod" x1="25.143" x2="21.623" y1="7.049" y2="16.584" gradientUnits="userSpaceOnUse"><stop offset="0" stop-color="#262626" stop-opacity="0"/><stop offset="1" stop-color="#262626" stop-opacity=".8"/></linearGradient><circle cx="23.5" cy="11.5" r="2.5" fill="url(#SrSrwT94pjJKgLTShfysod)"/><linearGradient id="SrSrwT94pjJKgLTShfysoe" x1="40.315" x2="37.498" y1="17.439" y2="25.067" gradientUnits="userSpaceOnUse"><stop offset="0" stop-color="#262626" stop-opacity="0"/><stop offset="1" stop-color="#262626" stop-opacity=".8"/></linearGradient><circle cx="39" cy="21" r="2" fill="url(#SrSrwT94pjJKgLTShfysoe)"/><linearGradient id="SrSrwT94pjJKgLTShfysof" x1="26.315" x2="23.498" y1="33.439" y2="41.067" gradientUnits="userSpaceOnUse"><stop offset="0" stop-color="#262626" stop-opacity="0"/><stop offset="1" stop-color="#262626" stop-opacity=".8"/></linearGradient><circle cx="25" cy="37" r="2" fill="url(#SrSrwT94pjJKgLTShfysof)"/></svg>