<svg xmlns="http://www.w3.org/2000/svg" baseProfile="basic" viewBox="0 0 48 48"><linearGradient id="y6DNuC3uglwNU2eG0KLDCa" x1="37.148" x2="8.984" y1="-11.609" y2="64.669" gradientUnits="userSpaceOnUse"><stop offset="0" stop-color="#262626" stop-opacity="0"/><stop offset="1" stop-color="#262626" stop-opacity=".8"/></linearGradient><circle cx="24" cy="24" r="20" fill="url(#y6DNuC3uglwNU2eG0KLDCa)"/><linearGradient id="y6DNuC3uglwNU2eG0KLDCb" x1="30.139" x2="-2.627" y1="-11.505" y2="77.237" gradientUnits="userSpaceOnUse"><stop offset="0" stop-color="#262626" stop-opacity="0"/><stop offset="1" stop-color="#262626" stop-opacity=".8"/></linearGradient><path fill="url(#y6DNuC3uglwNU2eG0KLDCb)" d="M14,24c0-11.046,4.477-20,10-20C12.954,4,4,12.954,4,24s8.954,20,20,20	C18.477,44,14,35.046,14,24z"/><linearGradient id="y6DNuC3uglwNU2eG0KLDCc" x1="36.458" x2="30.121" y1="9.488" y2="26.651" gradientUnits="userSpaceOnUse"><stop offset="0" stop-color="#262626" stop-opacity="0"/><stop offset="1" stop-color="#262626" stop-opacity=".8"/></linearGradient><circle cx="33.5" cy="17.5" r="4.5" fill="url(#y6DNuC3uglwNU2eG0KLDCc)"/><linearGradient id="y6DNuC3uglwNU2eG0KLDCd" x1="26.143" x2="22.623" y1="7.049" y2="16.584" gradientUnits="userSpaceOnUse"><stop offset="0" stop-color="#262626" stop-opacity="0"/><stop offset="1" stop-color="#262626" stop-opacity=".8"/></linearGradient><circle cx="24.5" cy="11.5" r="2.5" fill="url(#y6DNuC3uglwNU2eG0KLDCd)"/><linearGradient id="y6DNuC3uglwNU2eG0KLDCe" x1="10.315" x2="7.498" y1="17.439" y2="25.067" gradientUnits="userSpaceOnUse"><stop offset="0" stop-color="#262626" stop-opacity="0"/><stop offset="1" stop-color="#262626" stop-opacity=".8"/></linearGradient><circle cx="9" cy="21" r="2" fill="url(#y6DNuC3uglwNU2eG0KLDCe)"/><linearGradient id="y6DNuC3uglwNU2eG0KLDCf" x1="24.315" x2="21.498" y1="33.439" y2="41.067" gradientUnits="userSpaceOnUse"><stop offset="0" stop-color="#262626" stop-opacity="0"/><stop offset="1" stop-color="#262626" stop-opacity=".8"/></linearGradient><circle cx="23" cy="37" r="2" fill="url(#y6DNuC3uglwNU2eG0KLDCf)"/></svg>