<svg id="Capa_1" enable-background="new 0 0 511.995 511.995" height="512" viewBox="0 0 511.995 511.995" width="512" xmlns="http://www.w3.org/2000/svg"><path d="m376.485 271.096c-5.08 0-10.119.384-15.097 1.102v-166.803c0-58.113-47.278-105.391-105.391-105.391-21.669 0-42.629 6.68-60.23 18.973-17.088-11.953-37.866-18.977-60.257-18.977-58.113 0-105.391 47.278-105.391 105.391v45.147h90.293v-45.147c0-8.325 6.772-15.097 15.097-15.097 8.324 0 15.097 6.772 15.097 15.097v286.121h90.294v-286.117h.001c0-8.324 6.772-15.097 15.097-15.097s15.097 6.772 15.097 15.097v271.092 30.117c0 8.324-6.772 15.097-15.097 15.097h-45.147v90.294h45.147c31.582 0 60.951-13.938 80.876-37.853 12.523 5.086 25.999 7.736 39.611 7.736 58.113 0 105.391-47.278 105.391-105.391s-47.278-105.391-105.391-105.391zm-165.585 90.416h-30.293v-256.121c0-24.867-20.23-45.097-45.097-45.097s-45.097 20.23-45.097 45.097v15.147h-30.294v-15.147c0-41.571 33.82-75.391 75.391-75.391 41.57 0 75.39 33.82 75.39 75.391zm45.098-301.214c-8.225 0-15.937 2.224-22.583 6.087-3.793-9.488-8.926-18.301-15.166-26.202 11.399-6.618 24.385-10.179 37.749-10.179 41.57 0 75.391 33.82 75.391 75.391v175.867c-11.461 5.437-21.677 12.813-30.294 21.657v-197.524c-.001-24.866-20.231-45.097-45.097-45.097zm120.487 391.579c-8.053 0-16.036-1.298-23.618-3.802 4.011-9.344 6.646-19.222 7.814-29.357 4.921 1.848 10.245 2.865 15.804 2.865 24.867 0 45.097-20.23 45.097-45.097 0-24.866-20.23-45.097-45.097-45.097-24.866 0-45.097 20.23-45.097 45.097v30.122c.872 40.099-34.883 76.213-75.39 75.386h-15.147v-30.294h15.147c24.866 0 45.097-20.23 45.097-45.097v-30.117c0-31.876 20.213-60.445 50.307-71.093 8.042-2.852 16.48-4.297 25.083-4.297 41.57 0 75.391 33.82 75.391 75.391s-33.821 75.39-75.391 75.39zm-15.097-75.39c0-8.324 6.772-15.097 15.097-15.097s15.097 6.772 15.097 15.097-6.772 15.097-15.097 15.097c-8.324 0-15.097-6.772-15.097-15.097z"/></svg>