<svg id="Capa_1" enable-background="new 0 0 512.096 512.096" height="512" viewBox="0 0 512.096 512.096" width="512" xmlns="http://www.w3.org/2000/svg"><path d="m511.931 161.855c-.799-54.878-51.021-102.744-106.475-101.541-55.133 0-103.758 37.147-118.253 90.341l-31.155 114.337-31.155-114.337c-14.495-53.194-63.12-90.341-118.253-90.341-55.454-1.203-105.676 46.663-106.475 101.541-3.459 58.081 47.871 110.613 105.321 109.241h15v-90.294h-15c-9.279.007-15.452-8.544-15.082-15.771.36-9.377 9.932-14.918 17.056-14.411 14.082.868 26.83 10.924 30.329 23.975l75.576 277.116-.071.093h85.506l-.071-.093 75.576-277.116c3.499-13.051 16.247-23.107 30.329-23.975 7.123-.507 16.695 5.034 17.056 14.411.369 7.228-5.803 15.778-15.082 15.771h-15v90.294h15c57.452 1.373 108.781-51.16 105.323-109.241zm-90.322 77.758v-31.403c17.403-5.774 31.335-24.854 30.055-44.463-.459-24.117-23.859-45.077-48.874-43.07-26.992 1.664-50.614 20.615-57.443 46.087l-69.556 255.04h-39.486l-69.556-255.04c-6.829-25.472-30.451-44.423-57.443-46.087-25.015-2.007-48.415 18.954-48.874 43.07-1.281 19.609 12.652 38.689 30.055 44.463v31.403c-35.378-6.538-62.381-41.421-60.341-76.681.61-39.93 37.543-73.508 76.495-72.618 41.635 0 78.36 28.057 89.307 68.228l60.052 220.385v.352l.048-.176.048.176v-.352l60.052-220.385c10.946-40.17 47.672-68.228 89.307-68.228 38.952-.89 75.885 32.688 76.495 72.618 2.04 35.26-24.962 70.143-60.341 76.681z"/></svg>