<svg id="Capa_1" enable-background="new 0 0 511.974 511.974" height="512" viewBox="0 0 511.974 511.974" width="512" xmlns="http://www.w3.org/2000/svg"><g><path d="m119.373 301.241c-24.873 0-45.108 20.235-45.108 45.107s20.235 45.107 45.108 45.107c24.872 0 45.107-20.235 45.107-45.107s-20.235-45.107-45.107-45.107zm0 60.215c-8.331 0-15.108-6.777-15.108-15.107s6.777-15.107 15.108-15.107c8.33 0 15.107 6.777 15.107 15.107s-6.777 15.107-15.107 15.107z"/><path d="m407.708 361.443v45.145c0 8.324-6.771 15.096-15.095 15.096-15.289 1.28-31.658-17.512-27.33-33.537l43.063-200.96c9.908-45.607-1.373-92.858-30.951-129.64-29.32-36.461-73.166-57.436-120.302-57.547-.1 0-.195 0-.295 0-46.615 0-90.34 20.927-119.994 57.442-29.481 36.303-40.794 83.567-31.029 129.711l11.536 53.823c-57.168 1.103-103.336 47.944-103.336 105.372 0 58.117 47.281 105.398 105.398 105.398 58.116 0 105.397-47.281 105.397-105.398-.01-21.847-2.493-46.871-7.328-69.034l-23.381-109.084-.087-.382c-4.384-18.128.452-37.601 13.267-53.426 12.654-15.624 31.14-24.641 49.406-24.138l.406.011.404-.011c18.63-.485 36.663 8.317 49.45 24.157 12.627 15.642 17.583 35.598 13.256 53.381l-.049.201-43.058 200.93c-16.163 75.381 42.739 143.133 115.559 143.02 58.109-.091 105.385-47.276 105.385-105.386v-45.145h-90.292zm-288.335 60.303c-41.575 0-75.398-33.823-75.398-75.398s33.823-75.398 75.398-75.398c41.16-.093 75.498 33.935 75.384 75.398h.014c0 41.575-33.824 75.398-75.398 75.398zm348.626-15.158c0 41.568-33.817 75.386-75.36 75.386-54.401 1.749-98.926-54.052-86.262-106.673l42.986-200.598c6.433-26.746-.705-56.3-19.113-79.104-18.613-23.058-45.277-35.927-73.174-35.313-27.416-.635-54.746 12.53-73.15 35.256-18.699 23.09-25.677 51.932-19.16 79.16l18.904 88.193c-10.265-7.927-22.025-14.005-34.78-17.732l-13.774-64.258c-7.873-37.204 1.23-75.311 24.976-104.55 23.932-29.469 59.166-46.355 96.7-46.355h.237c38.023.089 73.374 16.981 96.987 46.347 23.871 29.685 32.988 67.763 25.005 104.512l-42.984 200.594c-8.631 35.768 22.473 71.497 56.783 70.23 24.771-.111 44.888-20.298 44.888-45.095v-15.145h30.291z"/></g></svg>