<svg id="Capa_1" enable-background="new 0 0 511.987 511.987" height="512" viewBox="0 0 511.987 511.987" width="512" xmlns="http://www.w3.org/2000/svg"><path d="m376.478 90.292h45.146v-90.292h-45.146c-58.111 0-105.389 47.277-105.389 105.388v105.462h-30.192v-105.462c0-58.111-47.277-105.388-105.388-105.388h-45.146v90.292h45.146c8.324 0 15.097 6.772 15.097 15.096v105.462h-60.243v90.292h60.243v105.458c0 8.324-6.772 15.096-15.097 15.096h-45.146v90.292h45.146c58.111 0 105.389-47.277 105.389-105.388v-105.458h30.192v105.458c0 58.111 47.277 105.388 105.389 105.388h45.146v-90.292h-45.146c-8.324 0-15.096-6.772-15.096-15.096v-105.458h60.242v-90.292h-60.242v-105.462c-.001-8.324 6.771-15.096 15.095-15.096zm-240.969-30h-15.146v-30.292h15.146c41.569 0 75.389 33.819 75.389 75.388v105.462h-30.292v-105.462c-.001-24.866-20.231-45.096-45.097-45.096zm75.388 346.307c0 41.569-33.819 75.388-75.389 75.388h-15.146v-30.292h15.146c24.866 0 45.097-20.23 45.097-45.096v-105.457h30.292zm165.581 45.096h15.146v30.292h-15.146c-41.569 0-75.389-33.819-75.389-75.388v-105.457h30.293v105.458c0 24.865 20.23 45.095 45.096 45.095zm15.147-180.553h-271.262v-30.292h271.262zm-90.536-60.292v-105.462c0-41.569 33.819-75.388 75.389-75.388h15.146v30.292h-15.146c-24.866 0-45.096 20.23-45.096 45.096v105.462z"/></svg>