<svg id="Capa_1" enable-background="new 0 0 511.999 511.999" height="512" viewBox="0 0 511.999 511.999" width="512" xmlns="http://www.w3.org/2000/svg"><g><path d="m105.39 252.196c24.866 0 45.097-20.23 45.097-45.097 0-24.866-20.23-45.097-45.097-45.097s-45.097 20.23-45.097 45.097 20.231 45.097 45.097 45.097zm0-60.194c8.324 0 15.097 6.772 15.097 15.097s-6.772 15.097-15.097 15.097-15.097-6.772-15.097-15.097c0-8.324 6.773-15.097 15.097-15.097z"/><path d="m105.39 312.489c58.112 0 105.39-47.278 105.39-105.39 0-29.698-12.352-56.563-32.183-75.738 24.905-7.526 51.888-11.426 77.096-10.901 55.032-1.329 129.802 20.084 159.5 62.659l86.817-28.86c-43.355-88.212-153.723-124.759-246.059-124.09-56.448-.394-117.234 14.238-162.565 39.13-58.788 32.571-93.385 79.013-93.386 137.8-.001 60.77 47.278 105.39 105.39 105.39zm150.499-252.32c70.431-1.175 156.751 24.617 200.098 77.774l-31.19 10.369c-39.326-39.643-114.375-59.366-168.867-57.854-35.913-.672-74.986 6.585-108.428 20.04-12.905-5.648-27.148-8.79-42.113-8.79-2.873 0-5.717.12-8.533.347 43.646-27.277 102.758-42.065 159.033-41.886zm-150.499 71.54c41.57 0 75.39 33.82 75.39 75.39s-33.82 75.39-75.39 75.39c-41.485 0-75.245-33.682-75.384-75.135-.379-40.379 33.497-75.913 75.384-75.645z"/><path d="m406.583 259.794c-24.866 0-45.097 20.23-45.097 45.097 0 24.866 20.23 45.097 45.097 45.097s45.097-20.23 45.097-45.097-20.231-45.097-45.097-45.097zm0 60.194c-8.324 0-15.097-6.772-15.097-15.097s6.772-15.097 15.097-15.097 15.097 6.772 15.097 15.097c0 8.324-6.773 15.097-15.097 15.097z"/><path d="m406.609 199.51c-58.112 0-105.39 47.278-105.39 105.39 0 29.698 12.352 56.563 32.183 75.738-24.905 7.526-51.888 11.426-77.096 10.901-55.032 1.329-129.802-20.084-159.5-62.659l-86.817 28.86c43.355 88.212 153.722 124.759 246.059 124.09 56.448.394 117.234-14.238 162.565-39.13 58.788-32.571 93.385-79.013 93.386-137.8.001-60.77-47.278-105.39-105.39-105.39zm-150.499 252.32c-70.431 1.174-156.751-24.617-200.098-77.774l31.19-10.369c39.326 39.643 114.375 59.366 168.867 57.854 35.913.672 74.986-6.585 108.428-20.04 12.905 5.648 27.148 8.79 42.113 8.79 2.873 0 5.717-.12 8.533-.347-43.646 27.277-102.758 42.065-159.033 41.886zm150.499-71.54c-41.57 0-75.39-33.82-75.39-75.39s33.82-75.39 75.39-75.39c41.485 0 75.245 33.682 75.384 75.135.379 40.379-33.497 75.913-75.384 75.645z"/></g></svg>