<svg id="Capa_1" enable-background="new 0 0 512 512" height="512" viewBox="0 0 512 512" width="512" xmlns="http://www.w3.org/2000/svg"><path d="m406.578 150.699c-5.089.01-10.12.379-15.065 1.084v-46.392c0-58.113-47.278-105.391-105.391-105.391-21.669 0-42.63 6.681-60.231 18.976-17.089-11.951-37.866-18.975-60.256-18.975-21.669 0-42.63 6.681-60.231 18.976-17.089-11.952-37.867-18.976-60.257-18.976h-45.147v90.293h45.147c8.324 0 15.097 6.772 15.097 15.097v286.121h90.294v-286.12c0-8.325 6.772-15.097 15.097-15.097s15.097 6.772 15.097 15.097v286.121h90.294v-286.121c0-8.325 6.772-15.097 15.097-15.097s15.096 6.772 15.096 15.097v150.528c0 .027-.001.054-.001.081l.001 139.877-55.551 46.445 57.916 69.272 32.238-26.954c19.286 17.533 44.376 27.357 70.788 27.357h45.121v-90.293h-40.633l39.184-32.76c39.182-32.757 61.718-78.175 61.718-131.891 0-52.926-48.183-106.438-105.422-106.355zm-286.04 210.813h-30.294v-256.12c0-24.867-20.23-45.097-45.097-45.097h-15.147v-30.294h15.147c41.57 0 75.391 33.82 75.391 75.391zm120.487 0h-30.294v-256.12c0-24.867-20.23-45.097-45.097-45.097-8.226 0-15.937 2.225-22.584 6.088-3.794-9.487-8.926-18.299-15.166-26.199 11.399-6.619 24.387-10.182 37.75-10.182 41.57 0 75.391 33.82 75.391 75.391zm45.097-301.218c-8.226 0-15.937 2.225-22.584 6.088-3.794-9.487-8.926-18.299-15.166-26.2 11.4-6.619 24.386-10.182 37.75-10.182 41.57 0 75.391 33.82 75.391 75.391v55.361c-10.237 4.757-21.74 12.771-30.295 21.608v-76.969c0-24.866-20.23-45.097-45.096-45.097zm135.608 391.412v30.293h-15.121c-17.47 0-34.135-6.021-47.462-16.86l23.968-20.039c6.984 4.276 15.068 6.605 23.494 6.605h15.121zm60.27-194.808c0 42.214-18.574 81.955-50.961 109.032l-123.683 103.407-19.432-23.241 123.683-103.406c25.482-21.304 40.098-52.573 40.098-85.736.602-23.044-20.533-46.586-44.961-46.05-22.688-.882-46.212 21.018-45.232 45.203l.001 89.363-30.295 25.328-.001-114.796v-.001h.001c-.872-39.98 34.515-76.127 75.418-75.301 36.533-1.297 77.431 38.572 75.364 76.198zm-90.49-1.133c.484-8.528 6.555-13.959 14.58-14.867 7.265-.369 15.544 6.972 15.615 16 0 24.306-10.694 47.187-29.34 62.775l-.853.713v-64.386z"/></svg>