<svg id="Capa_1" enable-background="new 0 0 512 512" height="512" viewBox="0 0 512 512" width="512" xmlns="http://www.w3.org/2000/svg"><path d="m481.202 434.967-60.28-60.281-21.302 21.302-11.565-11.565c13.21-17.605 21.045-39.463 21.045-63.116 0-41.966-24.663-78.277-60.252-95.212l.001-83.925c0-24.88-20.241-45.124-45.121-45.126h-.002c-5.303 0-10.395.919-15.125 2.607v-10.387c0-24.879-20.242-45.123-45.124-45.126-5.303 0-10.395.919-15.125 2.607v-1.621c-.002-24.878-20.244-45.121-45.125-45.124-24.882 0-45.125 20.244-45.125 45.126v1.619c-4.729-1.688-9.821-2.607-15.123-2.608-24.883 0-45.126 20.243-45.126 45.126l-.001 71.074c-4.761-1.708-9.891-2.639-15.231-2.639-24.823 0-45.019 20.195-45.019 45.018v117.251c-.001 48.536 20.991 93.873 57.852 125.518v66.515h215.54v-66.515c6.844-5.875 13.128-12.232 18.844-18.985 21.301-1.224 40.928-8.8 57.006-20.864l11.564 11.565-21.302 21.302 60.281 60.281c17.658 17.849 46.573 17.261 63.815 0 17.595-17.595 17.595-46.223 0-63.817zm-177.476-307.924c8.339.002 15.124 6.787 15.124 15.126l-.001 74.852c-4.94-.713-9.988-1.09-15.123-1.09s-10.183.376-15.124 1.09v-74.852c0-8.34 6.785-15.125 15.124-15.126zm-42.733 304.069v50.888h-155.54v-50.888c-35.866-25.684-58.048-67.066-57.852-111.144v-117.252c0-8.281 6.737-15.018 15.019-15.018 8.398 0 15.231 6.832 15.231 15.23h-.001v91.083h15c41.562 0 75.375 33.813 75.375 75.375h30c0-53.011-39.352-97.006-90.375-104.311l.002-175.812c0-8.34 6.785-15.126 15.124-15.126 8.34.001 15.125 6.787 15.125 15.126v143.225h30v-187.362c0-8.341 6.785-15.126 15.123-15.126 8.341.001 15.127 6.788 15.128 15.126v187.362h30v-143.224c0-8.34 6.785-15.126 15.123-15.126 8.341.001 15.126 6.787 15.126 15.126v136.832c-35.589 16.935-60.251 53.245-60.251 95.211 0 47.182 31.171 87.221 74.001 100.606-1.745 1.633-8.725 7.162-11.358 9.199zm42.733-34.43c-41.561 0-75.375-33.813-75.375-75.375s33.813-75.375 75.375-75.375 75.375 33.813 75.375 75.375-33.814 75.375-75.375 75.375zm156.263 80.888c-5.897 5.896-15.492 5.897-21.39 0l-39.068-39.068 21.391-21.39 39.067 39.067c5.898 5.898 5.898 15.494 0 21.391z"/></svg>