<svg id="Capa_1" enable-background="new 0 0 512 512" height="512" viewBox="0 0 512 512" width="512" xmlns="http://www.w3.org/2000/svg"><path d="m271.118 0 .017 90.25h86.798l-162.151 162.152-71.814-71.814-63.818 63.816 71.815 71.815-131.965 131.965 63.816 63.816 131.965-131.965 71.814 71.814 63.816-63.816-71.814-71.814 162.153-162.152v86.808h90.25v-240.875zm-207.302 469.574-21.39-21.39 110.752-110.752 21.39 21.39zm203.78-60.151-165.019-165.019 21.39-21.39 165.018 165.019zm214.404-198.548h-30.25v-129.235l-213.365 213.365-21.39-21.39 213.365-213.365h-129.231l-.005-30.25h180.876z"/></svg>