<svg id="Capa_1" enable-background="new 0 0 512 512" height="512" viewBox="0 0 512 512" width="512" xmlns="http://www.w3.org/2000/svg"><g><path d="m415.519 271h35.231v-30h-25.938c.948-5.672 1.428-11.312 1.428-16.913 0-57.118-46.469-103.587-103.587-103.587-24.535 0-48.103 8.721-66.653 24.323-18.551-15.603-42.118-24.323-66.653-24.323-57.118 0-103.587 46.469-103.587 103.587 0 5.601.48 11.241 1.428 16.913h-25.938v30h35.231c32.377 63.994 84.461 99.796 159.519 148.215 75.165-48.415 126.666-83.876 159.519-148.215zm-299.759-46.913c0-40.576 33.011-73.587 73.587-73.587 31.19-.079 50.398 17.754 66.653 38.038 18.457-23.88 39.332-38.131 66.653-38.038 40.576 0 73.587 33.011 73.587 73.587 0 5.579-.645 11.21-1.943 16.913h-49.005l-23.565 18.041-38.304-78.994-52.25 88.5-29.946-61.756-44.685 34.209h-38.839c-1.298-5.703-1.943-11.334-1.943-16.913zm249.016 70.686c-23.244 27.743-59.816 57.659-108.776 88.993-48.96-31.333-85.532-61.25-108.776-88.992-6.814-8.133-12.494-16.042-17.074-23.773h36.558l23.565-18.041 38.304 78.994 52.25-88.5 29.946 61.756 44.685-34.21h26.392c-4.579 7.732-10.26 15.641-17.074 23.773z"/><path d="m512 256c0-68.38-26.629-132.667-74.98-181.02-48.353-48.351-112.64-74.98-181.02-74.98-53.592 0-104.663 16.368-147.525 46.72-6.715-3.97-14.537-6.258-22.887-6.258-24.882 0-45.125 20.243-45.125 45.125 0 8.35 2.288 16.172 6.258 22.888-30.352 42.863-46.721 93.933-46.721 147.525 0 68.38 26.629 132.667 74.98 181.02 48.353 48.351 112.64 74.98 181.02 74.98 53.589 0 104.65-16.378 147.511-46.729 6.719 3.975 14.546 6.266 22.902 6.266 24.882 0 45.125-20.243 45.125-45.125 0-8.35-2.288-16.172-6.258-22.887 30.352-42.862 46.72-93.933 46.72-147.525zm-426.413-185.538c8.34 0 15.125 6.785 15.125 15.125s-6.785 15.125-15.125 15.125-15.125-6.785-15.125-15.125 6.786-15.125 15.125-15.125zm340.826 371.076c-8.34 0-15.125-6.785-15.125-15.125s6.785-15.125 15.125-15.125 15.125 6.785 15.125 15.125-6.786 15.125-15.125 15.125zm15.801-57.388c-4.921-1.846-10.244-2.862-15.801-2.862-24.882 0-45.125 20.243-45.125 45.125 0 5.553 1.014 10.871 2.857 15.789-37.406 25.86-81.699 39.798-128.145 39.798-60.367 0-117.12-23.508-159.806-66.194s-66.194-99.439-66.194-159.806c0-46.445 13.932-90.742 39.793-128.147 4.919 1.844 10.24 2.859 15.794 2.859 24.882 0 45.125-20.243 45.125-45.125 0-5.553-1.014-10.872-2.857-15.789 37.406-25.861 81.699-39.798 128.145-39.798 60.367 0 117.12 23.508 159.806 66.194s66.194 99.439 66.194 159.806c0 46.445-13.927 90.744-39.786 128.15z"/></g></svg>