<svg id="Capa_1" enable-background="new 0 0 511.997 511.997" height="512" viewBox="0 0 511.997 511.997" width="512" xmlns="http://www.w3.org/2000/svg"><g><path d="m388.382 290.616c-9.669 7.792-15.505 12.496-26.952 12.496-14.828 0-23.416-6.251-35.301-14.903-15.356-11.179-34.467-25.092-70.132-25.092-35.664 0-54.774 13.913-70.13 25.091-11.885 8.652-20.472 14.904-35.3 14.904-11.448 0-17.284-4.704-26.953-12.497-14.399-11.605-34.119-27.499-78.468-27.499h-45.146v90.293h45.146c12.029 0 18.02 4.803 27.944 12.76 14.313 11.477 33.916 27.194 77.463 27.235h.134c36.366-.001 55.21-13.975 70.352-25.205 11.576-8.586 19.94-14.79 34.958-14.79 15.02 0 23.385 6.204 34.961 14.791 15.142 11.231 33.981 25.205 70.352 25.205h.134c43.547-.041 63.15-15.759 77.463-27.235 9.924-7.958 15.914-12.76 27.943-12.76h45.146v-90.293h-45.146c-44.349 0-64.069 15.894-78.468 27.499zm93.615 32.794h-15.146c-22.571 0-35.396 10.283-46.71 19.355-13.218 10.598-25.704 20.609-58.725 20.64-.037 0-.074 0-.111 0-26.453 0-38.514-8.945-52.475-19.3-13.079-9.7-27.902-20.695-52.833-20.695-24.93 0-39.752 10.995-52.831 20.695-13.962 10.356-26.019 19.3-52.475 19.3-.036 0-.075 0-.111 0-33.021-.031-45.506-10.042-58.725-20.64-11.315-9.072-24.139-19.355-46.71-19.355h-15.145v-30.293h15.146c33.765 0 46.335 10.131 59.643 20.856 11.13 8.971 23.746 19.139 45.778 19.139 24.592 0 39.661-10.971 52.957-20.65 13.665-9.949 26.572-19.345 52.473-19.345 25.902 0 38.81 9.397 52.476 19.345 13.296 9.679 28.366 20.65 52.957 20.65 22.032 0 34.647-10.168 45.778-19.139 13.308-10.726 25.877-20.856 59.643-20.856h15.146z"/><path d="m466.851 118.592c-44.35 0-64.07 15.894-78.469 27.499-9.668 7.793-15.504 12.497-26.952 12.497-14.828 0-23.416-6.251-35.301-14.904-15.355-11.179-34.467-25.092-70.132-25.092-35.664 0-54.774 13.913-70.13 25.092-11.885 8.652-20.472 14.904-35.3 14.904-11.448 0-17.284-4.704-26.953-12.497-14.398-11.605-34.119-27.499-78.468-27.499h-45.146v90.293h45.146c12.029 0 18.02 4.803 27.944 12.76 14.313 11.477 33.916 27.194 77.463 27.235h.135c36.366-.001 55.209-13.975 70.351-25.205 11.576-8.586 19.94-14.79 34.958-14.79 15.02 0 23.385 6.204 34.961 14.791 15.142 11.231 33.98 25.205 70.351 25.205h.135c43.547-.041 63.15-15.758 77.463-27.235 9.924-7.957 15.914-12.76 27.943-12.76h45.146v-90.293h-45.145zm15.146 60.293h-15.146c-22.571 0-35.396 10.283-46.71 19.355-13.218 10.599-25.704 20.609-58.725 20.64-.039 0-.073 0-.112 0-26.449 0-38.514-8.945-52.474-19.3-13.079-9.701-27.902-20.695-52.833-20.695-24.93 0-39.752 10.995-52.831 20.695-13.961 10.355-26.021 19.3-52.474 19.3-.037 0-.074 0-.111 0-33.021-.031-45.506-10.042-58.725-20.64-11.315-9.072-24.139-19.355-46.71-19.355h-15.146v-30.293h15.146c33.765 0 46.335 10.131 59.643 20.857 11.13 8.971 23.746 19.139 45.778 19.139 24.592 0 39.661-10.971 52.957-20.65 13.665-9.948 26.572-19.345 52.473-19.345 25.902 0 38.81 9.397 52.476 19.346 13.296 9.679 28.365 20.65 52.957 20.65 22.032 0 34.647-10.168 45.778-19.139 13.308-10.726 25.877-20.857 59.643-20.857h15.146z"/></g></svg>