<svg id="Capa_1" enable-background="new 0 0 511.883 511.883" height="512" viewBox="0 0 511.883 511.883" width="512" xmlns="http://www.w3.org/2000/svg"><path d="m511.883 130.712c0-53.817-49.897-100.657-104.416-100.657-.642 0-1.29.007-1.933.02-55.036.072-103.814 37.111-118.658 90.122l-13.174 47.051c-2.215 7.911-9.5 13.436-17.716 13.436-8.215 0-15.5-5.525-17.715-13.436l-13.175-47.051c-14.856-53.062-63.718-90.122-118.821-90.122-57.801-.001-106.275 45.951-106.275 103.836 0 60.703 50.194 109.664 105.726 106.94l14.652-.34v-90.213l-15.261.266c-8.713-.502-14.395-7.02-14.834-15.314.106-8.206 7.28-14.882 15.993-14.882 14.78 0 27.887 9.941 31.872 24.174l13.174 47.051c2.284 8.157 5.498 15.872 9.477 23.072-34.921 28.51-55.385 71.089-55.385 116.592 0 83.026 67.547 150.573 150.572 150.573s150.572-67.547 150.572-150.573c0-45.497-20.464-88.082-55.384-116.592 3.978-7.199 7.192-14.915 9.476-23.071l13.175-47.051c3.985-14.233 17.091-24.173 31.872-24.173 8.318 0 15.636 6.575 15.979 14.358.123 8.93-6.347 15.025-14.761 15.838l-15.32-.328v90.325l14.704.29c56.227 2.7 105.584-50.257 105.584-110.141zm-135.324 200.543c0 66.484-54.089 120.573-120.572 120.573s-120.572-54.089-120.572-120.573c0-36.006 16.023-69.73 43.412-92.565 7.404 7.455 15.849 13.819 25.061 18.875-23.085 16.369-38.181 43.299-38.181 73.69 0 49.78 40.499 90.279 90.279 90.279s90.279-40.499 90.279-90.279c0-30.391-15.095-57.321-38.181-73.69 9.213-5.056 17.658-11.419 25.062-18.875 27.388 22.835 43.413 56.563 43.413 92.565zm-60.293 0c0 33.238-27.041 60.279-60.279 60.279s-60.279-27.041-60.279-60.279 27.041-60.279 60.279-60.279 60.279 27.041 60.279 60.279zm144.842-144.155c-11.048 11.622-24.931 19.399-39.514 22.392v-31.521c17.076-5.764 31.659-25.546 30.045-44.708-1.122-23.666-21.7-42.895-45.942-42.895-28.178 0-53.164 18.951-60.761 46.085l-13.175 47.051c-9.475 33.839-40.635 57.473-75.775 57.473s-66.3-23.634-75.775-57.473l-13.174-47.051c-7.598-27.134-32.584-46.084-60.761-46.084-24.987 0-45.583 19.873-45.988 44.332-.769 17.451 12.081 37.164 30.09 43.33v31.498c-32.646-5.813-62.681-41.129-60.383-75.059.531-41.021 34.751-74.394 76.28-74.394 41.706 0 78.688 28.049 89.933 68.21l13.175 47.051c5.827 20.812 24.991 35.347 46.604 35.347s40.777-14.535 46.604-35.347l13.174-47.051c11.246-40.161 48.227-68.21 89.932-68.21l.329-.003c38.774-.872 74.992 33.316 75.874 71.685 1.579 18.709-6.044 40.037-20.792 55.342z"/></svg>