<svg id="Capa_1" enable-background="new 0 0 512 512" height="512" viewBox="0 0 512 512" width="512" xmlns="http://www.w3.org/2000/svg"><g><path d="m0 470.346h512v-90.25h-512zm30-60.25h452v30.25h-452z"/><path d="m413.177 259.634c5.614-16.778 8.448-34.307 8.448-52.355 0-91.326-74.299-165.625-165.625-165.625s-165.625 74.299-165.625 165.625c0 18.048 2.834 35.578 8.448 52.355h-98.823v90.213h210.711l.039-14.961c.081-31.511-7.901-65.067-22.455-94.44-5.09-10.361-7.67-21.521-7.67-33.167 0-41.562 33.813-75.375 75.375-75.375s75.375 33.813 75.375 75.375c0 11.646-2.58 22.806-7.646 33.121-14.577 29.419-22.56 62.976-22.479 94.486l.039 14.961h210.711v-90.213zm68.823 60.213h-150.097c1.986-22.427 8.455-45.44 18.729-66.176 7.128-14.512 10.742-30.121 10.742-46.393 0-58.104-47.271-105.375-105.375-105.375s-105.375 47.271-105.375 105.375c0 16.271 3.614 31.88 10.766 46.439 10.255 20.698 16.721 43.704 18.707 66.129h-150.097v-30.213h115.561l-10.882-21.719c-9.491-18.943-14.304-39.344-14.304-60.636 0-74.784 60.841-135.625 135.625-135.625s135.625 60.841 135.625 135.625c0 21.292-4.812 41.693-14.304 60.636l-10.882 21.719h115.561z"/></g></svg>