<svg id="Capa_1" enable-background="new 0 0 512.035 512.035" height="512" viewBox="0 0 512.035 512.035" width="512" xmlns="http://www.w3.org/2000/svg"><path d="m421.741 331.358v31.476c-16.736-21.409-30.228-47.025-30.228-76.695v-180.731c0-58.113-47.278-105.391-105.391-105.391-21.67 0-42.63 6.681-60.232 18.975-17.088-11.951-37.865-18.975-60.255-18.975-21.67 0-42.631 6.681-60.232 18.975-17.089-11.951-37.866-18.975-60.256-18.975h-45.147v90.293h45.147c8.324 0 15.097 6.772 15.097 15.097v316.245h90.294v-316.244c0-8.325 6.772-15.097 15.097-15.097 8.324 0 15.097 6.772 15.097 15.097v316.245h90.294v-316.245c0-8.325 6.772-15.097 15.097-15.097 8.324 0 15.097 6.772 15.097 15.097v180.738c.026 59.701 22.24 99.104 52.385 135.578h-22.229v90.293h180.66v-180.659zm-301.203 60.295h-30.294v-286.245c0-24.867-20.23-45.097-45.097-45.097h-15.147v-30.294h15.147c41.57 0 75.391 33.82 75.391 75.391zm120.487 0h-30.294v-286.245c0-24.867-20.23-45.097-45.097-45.097-8.226 0-15.938 2.225-22.584 6.088-3.794-9.487-8.926-18.299-15.166-26.2 11.399-6.619 24.386-10.182 37.75-10.182 41.571 0 75.391 33.82 75.391 75.391zm241.01 90.364h-120.66v-30.293h59.484l-23.053-25.138c-37.71-41.123-66.559-77.576-66.587-140.447v-180.731c0-24.867-20.23-45.097-45.097-45.097-8.226 0-15.938 2.225-22.584 6.088-3.794-9.487-8.926-18.299-15.166-26.2 11.399-6.619 24.386-10.181 37.751-10.181 41.57 0 75.391 33.82 75.391 75.391v180.731c0 55.201 34.565 96.474 64.678 126.263l25.549 25.274v-76.318h30.294z"/></svg>