<svg id="Capa_1" enable-background="new 0 0 512 512" height="512" viewBox="0 0 512 512" width="512" xmlns="http://www.w3.org/2000/svg"><g><path d="m512 256c0-68.38-26.629-132.667-74.98-181.02-48.353-48.351-112.64-74.98-181.02-74.98-53.592 0-104.663 16.368-147.525 46.72-6.715-3.97-14.537-6.258-22.887-6.258-24.882 0-45.125 20.243-45.125 45.125 0 8.35 2.288 16.172 6.258 22.888-30.352 42.863-46.721 93.933-46.721 147.525 0 68.38 26.629 132.667 74.98 181.02 48.353 48.351 112.64 74.98 181.02 74.98 53.589 0 104.65-16.378 147.511-46.729 6.719 3.975 14.546 6.266 22.902 6.266 24.882 0 45.125-20.243 45.125-45.125 0-8.35-2.288-16.172-6.258-22.887 30.352-42.862 46.72-93.933 46.72-147.525zm-426.413-185.538c8.34 0 15.125 6.785 15.125 15.125s-6.785 15.125-15.125 15.125-15.125-6.785-15.125-15.125 6.786-15.125 15.125-15.125zm10.607 345.344c-42.686-42.686-66.194-99.439-66.194-159.806 0-46.445 13.932-90.742 39.793-128.147 4.919 1.844 10.24 2.859 15.794 2.859 24.882 0 45.125-20.243 45.125-45.125 0-5.553-1.014-10.872-2.857-15.789 37.406-25.861 81.7-39.798 128.145-39.798 60.367 0 117.12 23.508 159.806 66.194s66.194 99.439 66.194 159.806c0 46.445-13.927 90.744-39.786 128.15-4.921-1.846-10.244-2.862-15.801-2.862-24.882 0-45.125 20.243-45.125 45.125 0 5.553 1.014 10.871 2.857 15.789-37.406 25.86-81.7 39.798-128.145 39.798-60.367 0-117.12-23.508-159.806-66.194zm330.219 25.732c-8.34 0-15.125-6.785-15.125-15.125s6.785-15.125 15.125-15.125 15.125 6.785 15.125 15.125-6.786 15.125-15.125 15.125z"/><path d="m421.64 346.31-.02-75.18h-15c-8.337 0-15.12-6.787-15.12-15.13 0-8.337 6.783-15.12 15.14-15.12h15v-75.19h-47.752c-6.196-17.533-22.935-30.13-42.558-30.13-19.628 0-36.37 12.597-42.567 30.13h-92.933v15c0 8.337-6.783 15.12-15.12 15.12-8.343 0-15.13-6.783-15.13-15.12v-15h-75.18v47.752c-17.533 6.196-30.13 22.934-30.13 42.558 0 19.628 12.597 36.37 30.13 42.567v47.743h47.743c6.197 17.533 22.939 30.13 42.567 30.13 19.624 0 36.362-12.597 42.558-30.13h92.932v-15c0-8.337 6.787-15.12 15.13-15.12 8.337 0 15.12 6.783 15.12 15.12v15zm-225.81-30v15c0 8.343-6.783 15.13-15.12 15.13-8.343 0-15.13-6.787-15.13-15.13v-15h-45.18v-45.18h-15c-8.343 0-15.13-6.787-15.13-15.13 0-8.337 6.787-15.12 15.13-15.12h15v-45.19h17.744c6.197 17.529 22.938 30.12 42.566 30.12 19.624 0 36.361-12.591 42.557-30.12h17.743v17.753c-17.529 6.196-30.12 22.934-30.12 42.557 0 19.628 12.591 36.369 30.12 42.566v17.744zm135.5-30.12c-19.628 0-36.369 12.591-42.566 30.12h-17.754v-45.18h-15c-8.337 0-15.12-6.787-15.12-15.13 0-8.337 6.783-15.12 15.12-15.12h15v-45.19h45.19v-15c0-8.343 6.787-15.13 15.13-15.13 8.337 0 15.12 6.787 15.12 15.13v15h45.19v17.746c-17.54 6.19-30.14 22.933-30.14 42.564s12.597 36.375 30.14 42.57v17.74h-17.753c-6.196-17.529-22.933-30.12-42.557-30.12z"/></g></svg>