<svg id="Capa_1" enable-background="new 0 0 512 512" height="512" viewBox="0 0 512 512" width="512" xmlns="http://www.w3.org/2000/svg"><g><path d="m451.75 0h-331.25v60.25h-60.25v451.75h331.25v-60.25h60.25zm-90.25 482h-271.25v-391.75h30.25v361.5h241zm60.25-60.25h-271.25v-391.75h271.25z"/><path d="m210.75 117.807c12.834-4.537 23.021-14.723 27.557-27.557h17.693v-30h-45.13v15c0 8.337-6.783 15.12-15.12 15.12h-15v45.13h30z"/><path d="m361.5 117.807v17.693h30v-45.13h-15c-8.337 0-15.12-6.783-15.12-15.12v-15h-45.13v30h17.693c4.536 12.834 14.723 23.021 27.557 27.557z"/><path d="m361.5 333.943c-12.834 4.537-23.021 14.723-27.557 27.557h-17.693v30h45.13v-15c0-8.337 6.783-15.12 15.12-15.12h15v-45.13h-30z"/><path d="m210.87 376.5v15h45.13v-30h-17.693c-4.537-12.834-14.723-23.021-27.557-27.557v-17.693h-30v45.13h15c8.337 0 15.12 6.783 15.12 15.12z"/><path d="m194.312 172.849 30.288 53.026-30.288 53.027 61.059.273 30.754 52.719 30.754-52.719 61.059-.273-30.288-53.026 30.288-53.027-61.059-.273-30.754-52.719-30.754 52.719zm91.813 6.545 13.479 23.104 26.781.12-13.284 23.257 13.284 23.257-26.781.12-13.479 23.104-13.479-23.104-26.781-.12 13.284-23.257-13.284-23.257 26.781-.12z"/></g></svg>