<svg id="Capa_1" enable-background="new 0 0 512 512" height="512" viewBox="0 0 512 512" width="512" xmlns="http://www.w3.org/2000/svg"><g><path d="m437.02 74.98c-48.353-48.351-112.64-74.98-181.02-74.98s-132.667 26.629-181.02 74.98c-48.351 48.353-74.98 112.64-74.98 181.02s26.629 132.667 74.98 181.02c48.353 48.351 112.64 74.98 181.02 74.98s132.667-26.629 181.02-74.98c48.351-48.353 74.98-112.64 74.98-181.02s-26.629-132.667-74.98-181.02zm-21.214 340.826c-42.686 42.686-99.439 66.194-159.806 66.194s-117.12-23.508-159.806-66.194-66.194-99.439-66.194-159.806 23.508-117.12 66.194-159.806 99.439-66.194 159.806-66.194 117.12 23.508 159.806 66.194 66.194 99.439 66.194 159.806-23.508 117.12-66.194 159.806z"/><path d="m256 60.25c-107.937 0-195.75 87.813-195.75 195.75s87.813 195.75 195.75 195.75 195.75-87.813 195.75-195.75-87.813-195.75-195.75-195.75zm91.172 142.72-60.418-.27-30.449-52.196c38.726.11 72.607 21.194 90.867 52.466zm-50.912 76.287-26.781.12-13.479 23.105-13.479-23.105-26.781-.12 13.284-23.257-13.284-23.257 26.781-.12 13.479-23.104 13.479 23.104 26.781.12-13.284 23.257zm-40.565-128.753-30.449 52.196-60.419.271c18.26-31.273 52.142-52.357 90.868-52.467zm-91.194 53.019 29.975 52.477-29.974 52.478c-8.905-15.465-14.002-33.388-14.002-52.478s5.097-37.013 14.001-52.477zm.327 105.507 60.418.27 30.449 52.196c-38.726-.11-72.607-21.194-90.867-52.466zm91.477 52.466 30.45-52.196 60.418-.271c-18.26 31.273-52.142 52.357-90.868 52.467zm91.194-53.019-29.975-52.477 29.974-52.478c8.905 15.465 14.002 33.388 14.002 52.478s-5.097 37.013-14.001 52.477zm-6.928-158.261c-19.517-15.635-43.434-25.989-69.571-28.881v-30.399c34.457 3.106 65.905 16.795 91.059 37.792zm-99.571-28.881c-26.137 2.892-50.054 13.246-69.571 28.881l-21.488-21.488c25.154-20.997 56.602-34.686 91.059-37.792zm-90.784 50.094c-15.635 19.517-25.989 43.434-28.881 69.571h-30.399c3.106-34.457 16.795-65.905 37.792-91.059zm-28.881 99.571c2.892 26.137 13.246 50.054 28.881 69.571l-21.488 21.488c-20.997-25.154-34.686-56.602-37.792-91.059zm50.094 90.784c19.517 15.635 43.434 25.989 69.571 28.881v30.398c-34.457-3.106-65.905-16.795-91.059-37.792zm99.571 28.881c26.137-2.892 50.054-13.246 69.571-28.881l21.488 21.488c-25.154 20.997-56.602 34.686-91.059 37.792zm90.784-50.094c15.635-19.517 25.989-43.434 28.881-69.571h30.398c-3.106 34.457-16.795 65.905-37.792 91.059zm28.881-99.571c-2.892-26.137-13.246-50.054-28.881-69.571l21.488-21.488c20.997 25.154 34.686 56.602 37.792 91.059z"/></g></svg>