<svg id="Capa_1" enable-background="new 0 0 512 512" height="512" viewBox="0 0 512 512" width="512" xmlns="http://www.w3.org/2000/svg"><g><path d="m512 256c0-68.38-26.629-132.667-74.98-181.02-48.353-48.351-112.64-74.98-181.02-74.98-53.592 0-104.663 16.368-147.525 46.72-6.715-3.97-14.537-6.258-22.887-6.258-24.882 0-45.125 20.243-45.125 45.125 0 8.35 2.288 16.172 6.258 22.888-30.352 42.863-46.721 93.933-46.721 147.525 0 68.38 26.629 132.667 74.98 181.02 48.353 48.351 112.64 74.98 181.02 74.98 53.589 0 104.65-16.378 147.511-46.729 6.719 3.975 14.546 6.266 22.902 6.266 24.882 0 45.125-20.243 45.125-45.125 0-8.35-2.288-16.172-6.258-22.887 30.352-42.862 46.72-93.933 46.72-147.525zm-426.413-185.538c8.34 0 15.125 6.785 15.125 15.125s-6.785 15.125-15.125 15.125-15.125-6.785-15.125-15.125 6.786-15.125 15.125-15.125zm340.826 371.076c-8.34 0-15.125-6.785-15.125-15.125s6.785-15.125 15.125-15.125 15.125 6.785 15.125 15.125-6.786 15.125-15.125 15.125zm15.801-57.388c-4.921-1.846-10.244-2.862-15.801-2.862-24.882 0-45.125 20.243-45.125 45.125 0 5.553 1.014 10.871 2.857 15.789-37.406 25.86-81.699 39.798-128.145 39.798-60.367 0-117.12-23.508-159.806-66.194s-66.194-99.439-66.194-159.806c0-46.445 13.932-90.742 39.793-128.147 4.919 1.844 10.24 2.859 15.794 2.859 24.882 0 45.125-20.243 45.125-45.125 0-5.553-1.014-10.872-2.857-15.789 37.406-25.861 81.699-39.798 128.145-39.798 60.367 0 117.12 23.508 159.806 66.194s66.194 99.439 66.194 159.806c0 46.445-13.927 90.744-39.786 128.15z"/><path d="m367.123 172.651c-8.79 0-20.969 2.175-34.562 6.788 4.612-13.594 6.787-25.772 6.787-34.562 0-29.777-24.226-54.003-54.003-54.003-10.514 0-20.687 3.071-29.346 8.681-8.659-5.609-18.832-8.681-29.346-8.681-29.777 0-54.003 24.226-54.003 54.003 0 8.79 2.175 20.968 6.788 34.562-13.594-4.613-25.772-6.788-34.562-6.788-29.777 0-54.003 24.226-54.003 54.003 0 10.514 3.071 20.687 8.68 29.346-5.609 8.659-8.68 18.832-8.68 29.346 0 29.777 24.226 54.003 54.003 54.003 8.79 0 20.968-2.175 34.562-6.788-4.613 13.594-6.788 25.772-6.788 34.562 0 29.777 24.226 54.003 54.003 54.003 10.514 0 20.687-3.071 29.346-8.681 8.659 5.609 18.832 8.681 29.346 8.681 29.777 0 54.003-24.226 54.003-54.003 0-8.79-2.175-20.968-6.787-34.562 13.593 4.613 25.771 6.788 34.562 6.788 29.777 0 54.003-24.226 54.003-54.003 0-10.514-3.071-20.687-8.681-29.346 5.609-8.659 8.681-18.832 8.681-29.346 0-29.777-24.226-54.003-54.003-54.003zm-140.469-51.777c12.595-.999 22.497 13.366 29.345 21.095 7.472-8.378 16.105-21.566 29.346-21.095 13.235 0 24.003 10.768 24.003 24.003 0 9.806-5.87 34.399-21.622 58.646l-31.726 48.837-31.727-48.837c-15.751-24.246-21.622-48.839-21.622-58.646 0-13.235 10.768-24.003 24.003-24.003zm-81.777 188.475c-13.235 0-24.003-10.768-24.003-24.003-.999-12.596 13.366-22.498 21.096-29.346-8.378-7.472-21.567-16.102-21.096-29.346 0-13.235 10.768-24.003 24.003-24.003 9.806 0 34.399 5.87 58.646 21.622l48.837 31.727-48.837 31.727c-24.247 15.752-48.84 21.622-58.646 21.622zm140.469 81.777c-12.594.998-22.499-13.365-29.346-21.095-7.472 8.378-16.102 21.567-29.345 21.095-13.235 0-24.003-10.768-24.003-24.003 0-9.806 5.87-34.399 21.622-58.646l31.726-48.837 31.727 48.837c15.752 24.246 21.622 48.839 21.622 58.646 0 13.235-10.768 24.003-24.003 24.003zm97.571-123.841c5.217 4.568 8.209 11.151 8.209 18.061 0 13.235-10.768 24.003-24.003 24.003-9.807 0-34.399-5.87-58.646-21.622l-48.837-31.727 48.838-31.727c24.246-15.751 48.839-21.622 58.646-21.622 13.235 0 24.003 10.768 24.003 24.003.998 12.595-13.367 22.498-21.097 29.346z"/></g></svg>