<svg id="Capa_1" enable-background="new 0 0 512 512" height="512" viewBox="0 0 512 512" width="512" xmlns="http://www.w3.org/2000/svg"><g><path d="m391.5 180.743h-42.837l15.487-13.945c17.381-15.65 27.35-38.041 27.35-61.43 0-24.882-20.243-45.125-45.125-45.125s-45.125 20.243-45.125 45.125v15h30v-15c0-8.34 6.785-15.125 15.125-15.125s15.125 6.785 15.125 15.125c0 14.9-6.351 29.165-17.424 39.135l-42.826 38.561v27.678h90.25z"/><path d="m165.625 301.25c-24.882 0-45.125 20.243-45.125 45.125v15h30v-15c0-8.34 6.785-15.125 15.125-15.125s15.125 6.785 15.125 15.125-6.785 15.125-15.125 15.125h-15v30h15c8.34 0 15.125 6.785 15.125 15.125s-6.785 15.125-15.125 15.125-15.125-6.785-15.125-15.125v-15h-30v15c0 24.882 20.243 45.125 45.125 45.125s45.125-20.243 45.125-45.125c0-11.568-4.38-22.13-11.563-30.125 7.183-7.995 11.563-18.557 11.563-30.125 0-24.882-20.243-45.125-45.125-45.125z"/><path d="m361.5 391.625h-25.721l29.979-77.995-28.003-10.763-36.505 94.974v23.784h60.25v30.125h30v-96.25h-30z"/><path d="m150.625 210.743h30v-150.5h-60.125v30h30.125z"/><path d="m271 60.25h-30v180.75h-180.75v30h180.75v180.75h30v-180.75h180.75v-30h-180.75z"/><path d="m412.838 0h-313.676l-99.162 99.162v313.677l99.162 99.161h313.677l99.161-99.162v-313.676zm69.162 400.412-81.588 81.588h-288.824l-81.588-81.588v-288.824l81.588-81.588h288.823l81.589 81.588z"/></g></svg>