<svg id="Capa_1" enable-background="new 0 0 512 512" height="512" viewBox="0 0 512 512" width="512" xmlns="http://www.w3.org/2000/svg"><g><path d="m512 256c0-68.38-26.629-132.667-74.98-181.02-48.353-48.351-112.64-74.98-181.02-74.98-53.592 0-104.663 16.368-147.525 46.72-6.715-3.97-14.537-6.258-22.887-6.258-24.882 0-45.125 20.243-45.125 45.125 0 8.35 2.288 16.172 6.258 22.888-30.352 42.863-46.721 93.933-46.721 147.525 0 68.38 26.629 132.667 74.98 181.02 48.353 48.351 112.64 74.98 181.02 74.98 53.589 0 104.65-16.378 147.511-46.729 6.719 3.975 14.546 6.266 22.902 6.266 24.882 0 45.125-20.243 45.125-45.125 0-8.35-2.288-16.172-6.258-22.887 30.352-42.862 46.72-93.933 46.72-147.525zm-426.413-185.538c8.34 0 15.125 6.785 15.125 15.125s-6.785 15.125-15.125 15.125-15.125-6.785-15.125-15.125 6.786-15.125 15.125-15.125zm340.826 371.076c-8.34 0-15.125-6.785-15.125-15.125s6.785-15.125 15.125-15.125 15.125 6.785 15.125 15.125-6.786 15.125-15.125 15.125zm15.801-57.388c-4.921-1.846-10.244-2.862-15.801-2.862-24.882 0-45.125 20.243-45.125 45.125 0 5.553 1.014 10.871 2.857 15.789-37.406 25.86-81.699 39.798-128.145 39.798-60.367 0-117.12-23.508-159.806-66.194s-66.194-99.439-66.194-159.806c0-46.445 13.932-90.742 39.793-128.147 4.919 1.844 10.24 2.859 15.794 2.859 24.882 0 45.125-20.243 45.125-45.125 0-5.553-1.014-10.872-2.857-15.789 37.406-25.861 81.699-39.798 128.145-39.798 60.367 0 117.12 23.508 159.806 66.194s66.194 99.439 66.194 159.806c0 46.445-13.927 90.744-39.786 128.15z"/><path d="m199.766 210.75c8.34 0 15.125 6.785 15.125 15.125h30c0-24.882-20.243-45.125-45.125-45.125s-45.125 20.243-45.125 45.125h30c0-8.34 6.785-15.125 15.125-15.125z"/><path d="m312.234 210.75c8.34 0 15.125 6.785 15.125 15.125h30c0-24.882-20.243-45.125-45.125-45.125s-45.125 20.243-45.125 45.125h30c0-8.34 6.786-15.125 15.125-15.125z"/><path d="m256 78.226c-98.025 0-177.774 79.749-177.774 177.774s79.749 177.774 177.774 177.774 177.774-79.749 177.774-177.774-79.749-177.774-177.774-177.774zm0 325.548c-81.483 0-147.774-66.292-147.774-147.774s66.291-147.774 147.774-147.774 147.774 66.291 147.774 147.774-66.291 147.774-147.774 147.774z"/><path d="m303.242 314.737c-13.512 10.884-29.848 16.638-47.242 16.638s-33.729-5.753-47.242-16.638c-13.135-10.581-22.442-25.394-26.206-41.713l-29.232 6.743c5.268 22.838 18.273 43.555 36.619 58.333 18.632 15.009 42.093 23.274 66.061 23.274s47.429-8.266 66.061-23.274c18.346-14.778 31.351-35.495 36.619-58.333l-29.232-6.743c-3.764 16.319-13.071 31.133-26.206 41.713z"/></g></svg>