<svg id="Capa_1" enable-background="new 0 0 512 512" height="512" viewBox="0 0 512 512" width="512" xmlns="http://www.w3.org/2000/svg"><g><path d="m210.875 60.25h150.5v30h-150.5z"/><path d="m210.875 421.75h150.5v30h-150.5z"/><path d="m180.625 178.057c12.834-4.537 23.021-14.723 27.557-27.557h17.693v-30h-45.13v15c0 8.337-6.783 15.12-15.12 15.12h-15v45.13h30z"/><path d="m391.505 135.5v-15h-45.13v30h17.693c4.536 12.834 14.723 23.021 27.557 27.557v17.693h30v-45.13h-15c-8.337 0-15.12-6.783-15.12-15.12z"/><path d="m391.625 333.943c-12.834 4.537-23.021 14.723-27.557 27.557h-17.693v30h45.13v-15c0-8.337 6.783-15.12 15.12-15.12h15v-45.13h-30z"/><path d="m225.875 361.5h-17.693c-4.537-12.834-14.723-23.02-27.557-27.557v-17.693h-30v45.13h15c8.337 0 15.12 6.783 15.12 15.12v15h45.13z"/><path d="m316.879 202.7-30.754-52.719-30.754 52.719-61.059.273 30.289 53.027-30.288 53.027 61.059.273 30.754 52.719 30.754-52.719 61.059-.273-30.29-53.027 30.288-53.027zm9.506 76.557-26.781.12-13.479 23.104-13.479-23.104-26.781-.12 13.284-23.257-13.284-23.257 26.781-.12 13.479-23.104 13.479 23.104 26.781.12-13.284 23.257z"/><path d="m30.125 0v512h451.75v-512zm421.75 70.25h-8.912l-31.338-31.338v-8.912h40.25zm-70.25 411.75h-191v-21.463l-48.912-48.912h-21.338v-311.375h21.338l48.912-48.912v-21.338h191v21.338l48.912 48.912h21.338v311.375h-21.338l-48.912 48.912zm-221-452v8.912l-31.338 31.338h-8.912v-40.25zm-100.5 452v-452h30.25v452zm60.25-40.375h8.912l31.338 31.338v9.037h-40.25zm291.25 40.375v-9.037l31.338-31.338h8.912v40.375z"/></g></svg>