<svg id="Capa_1" enable-background="new 0 0 512 512" height="512" viewBox="0 0 512 512" width="512" xmlns="http://www.w3.org/2000/svg"><g><path d="m286.055 271.125h30v30h-30z"/><path d="m195.945 271.125h30v30h-30z"/><path d="m409.731 113.81c58.303-6.247 102.269-55.173 102.269-113.81h-30c0 14.442-11.75 26.191-26.191 26.191h-44.228c-77.214 0-140.033 62.818-140.033 140.033v25.427c-3.558 5.039-9.181 7.975-15.556 7.975-6.366 0-11.982-2.928-15.541-7.954v-25.448c0-77.215-62.818-140.033-140.033-140.033h-44.227c-14.441 0-26.191-11.749-26.191-26.191h-30c0 58.637 43.966 107.563 102.269 113.81 26.852 2.876 47.101 25.409 47.101 52.415v12.704c-59.535-12.339-97.482-2.98-116.328-.339 3.019 56.056 38.319 85.689 88.211 86.595 22.336 43.586 34.847 83.98 44.138 117.806 6.161 22.433 20.323 41.104 38.879 53.306-2.209 9.574-3.021 19.637-3.021 23.089.53 31.277 33.831 47.275 54.751 52.614 21.043-5.297 54.049-21.347 54.752-52.613 0-2.505-.658-13.094-2.982-23.212 18.443-12.196 32.571-30.798 38.813-53.133 13.809-49.408 27.851-86.912 44.13-117.86 61.1-1.098 85.813-42.832 88.109-86.591-20.387-2.876-56.114-11.842-116.192.297v-12.662c0-27.007 20.249-49.54 47.101-52.416zm1.85-57.619h44.228c1.704 0 3.391-.076 5.057-.226-13.518 15.295-32.572 25.684-54.33 28.014-42.133 4.513-73.906 39.871-73.906 82.245v7.695c-10.201-2.135-20.866-2.132-31.082.008v-7.703c0-60.672 49.361-110.033 110.033-110.033zm-306.117 27.788c-21.758-2.33-40.812-12.719-54.33-28.014 1.666.149 3.353.226 5.057.226h44.228c60.672 0 110.033 49.36 110.033 110.033v7.592c-10.204-2.172-20.832-2.154-31.082.048v-7.64c0-42.373-31.772-77.732-73.906-82.245zm-36.8 119.908c16.289-1.273 46.645-2.253 72.853 4.027l-13.617 27.235c-7.086.372-14.475-.338-23.963-2.2-20.433-4.011-30.455-17.992-35.273-29.062zm212.088 255.5c0 9.36-14.937 17.578-24.749 21.251-9.839-3.685-24.755-11.897-24.755-21.251 0-2.441.466-6.539 1.135-10.608 7.509 1.94 15.34 2.971 23.352 2.971h.516c8.016 0 15.856-1.043 23.378-3.001.661 4.075 1.123 8.193 1.123 10.638zm36.938-84.42c-6.334 22.665-24.566 39.694-46.69 45.021v-25.192l23.773-17.562-17.826-24.129-20.947 15.474-20.947-15.474-17.826 24.129 23.773 17.562v25.212c-22.223-5.298-40.459-22.31-46.681-44.962-9.326-33.954-21.785-74.307-43.695-118.265l25.074-50.147c12.128-5.889 26.906-5.848 38.761.13 8.956 14.217 24.458 22.861 41.532 22.862 17.061 0 32.556-8.635 41.515-22.833 11.871-5.918 26.894-5.984 38.761-.196l25.055 50.11c-16.082 31.754-30.032 69.599-43.632 118.26zm125.497-171.065c-4.827 11.084-14.851 25.041-35.26 29.047-9.432 1.85-16.79 2.565-23.838 2.208l-13.638-27.275c25.174-6.126 56.505-5.29 72.736-3.98z"/></g></svg>