<svg id="Capa_1" enable-background="new 0 0 512.001 512.001" height="512" viewBox="0 0 512.001 512.001" width="512" xmlns="http://www.w3.org/2000/svg"><g><path d="m286.055 243.263h30v30h-30z"/><path d="m195.945 243.263h30v30h-30z"/><path d="m.001 226.826c-.135 33.971 13.061 67.371 36.486 90.088-3.434 42.223 20.183 82.287 58.988 99.646 17.643 39.448 58.739 63.198 101.734 58.803 34.454 25.013 82.44 25.507 117.583-.001 42.642 4.388 84.227-19.392 101.733-58.798 38.788-17.327 62.426-57.406 58.99-99.65 24.163-23.834 36.337-55.784 36.486-90.088 0-61.547-40.252-113.86-95.81-132.023-17.818-39.018-58.674-62.467-101.398-58.099-35.009-25.347-82.556-25.35-117.583.001-42.727-4.385-83.581 19.076-101.4 58.098-55.557 18.163-95.809 70.477-95.809 132.023zm375.847-138.829c-42.872-.987-85.454 19.05-111.934 53.078h-15.825c-26.452-33.709-68.372-54.08-111.914-53.078 17.088-18.344 44.71-25.801 69.485-19.644 28.619-26.644 70.6-28.298 100.636.009 24.795-6.176 52.466 1.286 69.552 19.635zm-208.882 117.624h19.234c.124.001.25.001.374.001 25.091.001 49.188-13.533 62.732-34.548h13.386c13.544 21.014 37.651 34.547 62.81 34.548.126 0 .25-.001.376-.001h19.009c10.041 44.528 1.525 108.259-25.633 142.545-12.989 16.803-29.181 26.788-48.253 29.827v-31.059l23.773-17.562-17.826-24.129-20.947 15.474-20.947-15.474-17.826 24.129 23.773 17.562v30.827c-19.896-3.386-36.452-13.872-49.351-31.31-25.293-32.504-34.311-98.266-24.684-140.83zm290.698 86.77c-7.544 8.329-20.128 12.072-31.744 7.521 26.97-30.736 35.753-79.876 11.567-112.745-19.178-27.931-62.091-32.534-87.17-11.545h-24.52c-.074 0-.151.001-.226.001-14.197 0-27.78-7.164-36.077-18.472 20.602-24.691 51.219-39.188 83.641-39.188 60.028 0 108.865 48.836 108.865 108.864.001 24.993-8.415 47.665-24.336 65.564zm-391.229 38.815c27.225 3.835 46.199-8.44 63.414-31.506l-11.393-9.662c-24.444-20.73-38.38-58.359-19.466-85.522 8.659-12.573 27.748-15.138 39.369-8.478-11.703 49.629-4.509 122.719 29.172 168.253 20.872 29.385 54.653 44.725 88.557 44.907 32.665.175 65.444-13.721 86.901-42.684 33.471-41.779 43.308-116.581 30.51-170.401 13.464-7.358 31.237-3.315 39.513 8.403 18.914 27.163 4.979 64.792-19.466 85.522l-11.393 9.662c13.338 18.524 34.529 36.409 63.414 31.506-2.388 28.941-23.513 53.916-52.16 62.147-11.516 37.426-46.97 59.792-87.064 50.36-28.62 26.645-70.6 28.298-100.636-.009-37.762 8.843-75.573-10.853-86.867-50.281-28.745-8.14-50.012-33.16-52.405-62.217zm-36.434-104.38c0-60.028 48.836-108.864 108.865-108.864 32.421 0 63.037 14.496 83.639 39.186-8.342 11.372-22.024 18.562-36.223 18.474h-24.597c-26.006-21.6-68.466-15.634-87.169 11.545-23.555 32.996-16.43 80.402 11.567 112.745-9.498 4.124-23.911 1.593-31.744-7.521-15.922-17.899-24.338-40.571-24.338-65.565z"/></g></svg>