<svg id="Capa_1" enable-background="new 0 0 512 512" height="512" viewBox="0 0 512 512" width="512" xmlns="http://www.w3.org/2000/svg"><g><path d="m414.616 335.606h-21.819c36.349-35.559 58.953-85.112 58.953-139.856 0-107.937-87.813-195.75-195.75-195.75s-195.75 87.813-195.75 195.75c0 54.745 22.604 104.298 58.952 139.856h-21.819l-6 86.144h-31.133v90.25h391.5v-90.25h-31.133zm-324.366-139.856c0-91.395 74.355-165.75 165.75-165.75s165.75 74.355 165.75 165.75c0 58.729-30.71 110.409-76.909 139.856h-177.682c-46.199-29.447-76.909-81.127-76.909-139.856zm35.117 169.856h261.267l3.91 56.144h-269.088zm296.383 116.394h-331.5v-30.25h331.5z"/><path d="m240.859 271.125h30.281v30h-30.281z"/><path d="m301.109 241h30.281v30h-30.281z"/><path d="m180.609 120.5h30.281v30h-30.281z"/><path d="m240.859 87.929h30.281v30h-30.281z"/><path d="m210.75 185.808h-30v25.067h-25.067v30h25.067v25.067h30v-25.067h25.067v-30h-25.067z"/><path d="m301.25 205.692h30v-25.067h25.067v-30h-25.067v-25.067h-30v25.067h-25.067v30h25.067z"/></g></svg>