<svg id="Capa_1" enable-background="new 0 0 512.001 512.001" height="512" viewBox="0 0 512.001 512.001" width="512" xmlns="http://www.w3.org/2000/svg"><path d="m490.787 432.758 21.213-21.214-24.662-24.662c-20.772-20.772-31.423-49.486-29.224-78.78l4.731-63.004c2.594-34.536-9.965-68.391-34.456-92.882l-23.696-23.696 77.307-77.307v24.037h30v-75.25l-75.25.001v30h24.036l-77.307 77.307-23.515-23.515c-24.49-24.49-58.345-37.049-92.882-34.456l-63.004 4.731c-29.293 2.199-58.008-8.452-78.78-29.224l-24.842-24.843-21.213 21.213 19.767 19.767-37.219 345.412-61.79 61.79 49.285 14.531 14.53 49.287 61.787-61.787 345.594-37.046zm-57.858-189.906-4.731 63.004c-.184 2.448-.298 4.89-.345 7.329-2.637-8.458-4.004-17.36-4.004-26.472-.001-29.662-9.878-57.801-28.065-80.678l21.094-21.094c11.838 16.725 17.61 37.152 16.051 57.911zm-104.962-105.85 21.39-21.39 47.212 47.212-21.39 21.39zm-121.642-53.019 63.004-4.731c20.759-1.559 41.186 4.213 57.911 16.051l-21.094 21.094c-22.877-18.187-51.017-28.065-80.678-28.064-9.112 0-18.015-1.367-26.473-4.004 2.439-.047 4.882-.162 7.33-.346zm-64.688-.375c22.393 22.393 52.164 34.724 83.831 34.723 26.699.001 51.8 10.398 70.679 29.277l23.515 23.515-214.927 214.929-12.342-3.639 33.855-314.194zm-63.326 371.47-4.87-16.52-16.52-4.87 23.522-23.522 16.52 4.87 4.87 16.52zm51.277-35.464-3.64-12.348 214.928-214.928 23.696 23.696c18.879 18.879 29.276 43.98 29.277 70.68 0 31.667 12.332 61.438 34.723 83.83l15.374 15.374z"/></svg>