<svg id="Capa_1" enable-background="new 0 0 512 512" height="512" viewBox="0 0 512 512" width="512" xmlns="http://www.w3.org/2000/svg"><g><path d="m210.863 401.692h30v30h-30z"/><path d="m162.238 241.13h30v30h-30z"/><path d="m319.738 241.13h30v30h-30z"/><path d="m271.113 401.692h30v30h-30z"/><path d="m510.308 129.142c5.74-32.295-3.441-65.158-25.239-90.218l-34.191-38.924h-39.072l9.472 58.413c3.104 19.1-9.138 37.737-27.895 42.437l-32.774 8.27c-25.395-16.576-53.917-19.688-83.274-11.51-14.054 3.935-28.763 3.954-42.542.058-28.587-8.334-57.61-5.231-83.416 11.448l-32.784-8.271c-18.732-4.695-30.975-23.332-27.869-42.437l9.471-58.408h-39.073l-34.238 38.979c-21.75 25.004-30.932 57.868-25.191 90.163 8.872 46.665 37.389 68.708 73.333 86.609-3.887-.635-7.85-.977-11.867-.977h-52.283l.036 15.036c-1.06 47.72 42.25 89.498 90.444 87.589 9.749 28.72 24.204 55.848 42.658 79.918-2.255 8.695-2.434 18.001-.149 27.14 12.886 51.544 58.994 87.543 112.124 87.543s99.237-35.999 112.123-87.544c2.284-9.139 2.106-18.445-.147-27.142 18.453-24.069 32.907-51.196 42.656-79.915 47.245 1.951 91.586-39.127 90.445-87.589l.036-15.036h-52.284c-4.005 0-7.956.34-11.833.971 42.092-20.469 65.219-45.135 73.323-86.603zm-479.078-5.25c-4.146-23.322 2.521-47.096 18.241-65.169l13.258-15.093-1.617 9.971c-5.584 34.358 16.462 67.893 50.166 76.337l12.821 3.235c-13.741 15.711-25.593 37.482-31.834 57.82-35.529-17.445-54.727-34.025-61.035-67.101zm11.672 120.881h20.258c8.132 0 15.911 2.272 22.63 6.495.497 6.979 5.612 28.435 7.157 35.798-22.347-2.033-44.237-19.437-50.045-42.293zm296.107 172.408c-9.542 38.164-43.681 64.819-83.02 64.819h-.001c-39.339 0-73.478-26.655-83.02-64.819-8.323-39.123 63.962-43.881 83.109-44.658 30.864.608 91.356 10.281 82.932 44.658zm55.874-160.044-5.338 24.338c-6.912 31.514-20.119 61.624-38.51 88.134-12.76-10.846-32.643-17.139-49.921-21.72v-104.912c0-13.428 9.562-25.054 22.738-27.644l25.405-4.994-5.787-29.438-25.405 4.995c-27.205 5.349-46.951 29.354-46.951 57.08v100.077c-5.001-.4-10.016-.614-15.032-.614-.05 0-.104 0-.153 0-5.026.004-10.052.222-15.064.628v-100.09c0-27.726-19.745-51.731-46.95-57.081l-25.406-4.994-5.787 29.438 25.406 4.993c13.175 2.591 22.737 14.217 22.737 27.645v104.95c-16.906 4.669-35.414 9.853-49.908 21.699-18.397-26.514-31.609-56.629-38.524-88.151l-5.337-24.337c-6.963-31.748 3.945-72.453 27.144-101.291 23.355-28.451 50.103-38.429 82.391-29.312 19.092 5.4 39.422 5.388 58.793-.036 30.59-9.105 59.26.732 82.318 29.349 23.196 28.835 34.104 69.541 27.141 101.288zm74.193-12.364c-5.458 21.691-26.653 40.216-50.045 42.291 1.926-9.389 6.096-25.722 7.157-35.796 6.719-4.223 14.498-6.495 22.629-6.495zm-49.359-53.77c-6.418-20.46-17.29-40.972-31.833-57.826l12.814-3.233c33.729-8.45 55.774-41.984 50.191-76.338l-1.618-9.976 13.21 15.038c15.769 18.128 22.435 41.901 18.289 65.224-7.787 39.93-33.245 52.347-61.053 67.111z"/></g></svg>